# xmcd
#
# Track frame offsets: 
#        150
#        20647
#        40241
#        59169
#        77810
#        93631
#        109127
#        122675
#        134734
#        155009
#        171491
#        192517
#
# Disc length: 2764 seconds
#
# Revision: 0
# Processed by: cddbd v1.5.2PL0 Copyright (c) Steve Scherf et al.
# Submitted via: ExactAudioCopy v0.99pb5
#
DISCID=b70aca0c
DTITLE=Kelley Hunt - Gravity Loves You
DYEAR=2011
DGENRE=
TTITLE0=Too Much History
TTITLE1=Gravity Loves You
TTITLE2=These Are The Days
TTITLE3=Music Was The Thread
TTITLE4=Deep Old Love
TTITLE5=This Fall
TTITLE6=I'm Ready
TTITLE7=The House of Love
TTITLE8=When The Deal Came Down
TTITLE9=The Land of Milk and Honey
TTITLE10=Shake It Off Right Away
TTITLE11=In The End
EXTD=
EXTT0=
EXTT1=
EXTT2=
EXTT3=
EXTT4=
EXTT5=
EXTT6=
EXTT7=
EXTT8=
EXTT9=
EXTT10=
EXTT11=
PLAYORDER=
